PathFileType	4	(x/y/z)	S05_M20_T01
DataRate	CameraRate	NumFrames	NumMarkers	Units	OrigDataRate	OrigDataStartFrame	OrigNumFrames
240	240	6	50	mm	240	271	541
Frame#	Time	Sternum			R.Acromium			L.Acromium			Top.Head			R.ASIS			L.ASIS			R.PSIS			L.PSIS			R.Great.Tro			L.Great.Tro			R.Iliac.Crest			L.Iliac.Crest			V.Sacral			R.Thigh.Upper.Post			R.Thigh.Lower.Ant			R.Thigh.Lower.Post			R.Thigh.Upper.Ant			R.Knee.Lat			R.Knee.Med			R.Shank.Upper.Post			R.Shank.Lower.Ant			R.Shank.Lower.Post			R.Shank.Upper.Ant			R.Ankle.Lat			R.Ankle.Med			R.Heel.Upper			R.Heel.Med			R.Heel.Lat			R.Toe.Lat			R.Toe.Med			R.Toe.Tip			L.Thigh.Upper.Post			L.Thigh.Lower.Ant			L.Thigh.Lower.Post			L.Thigh.Upper.Ant			L.Knee.Lat			L.Shank.Upper.Post			L.Shank.Lower.Ant			L.Shank.Lower.Post			L.Shank.Upper.Ant			L.Ankle.Lat			L.Ankle.Med			L.Heel.Upper			L.Heel.Med			L.Heel.Lat			L.Toe.Lat			L.Toe.Med			L.Toe.Tip			Cervical.Spine			Back			
		X1	Y1	Z1	X2	Y2	Z2	X3	Y3	Z3	X4	Y4	Z4	X5	Y5	Z5	X6	Y6	Z6	X7	Y7	Z7	X8	Y8	Z8	X9	Y9	Z9	X10	Y10	Z10	X11	Y11	Z11	X12	Y12	Z12	X13	Y13	Z13	X14	Y14	Z14	X15	Y15	Z15	X16	Y16	Z16	X17	Y17	Z17	X18	Y18	Z18	X19	Y19	Z19	X20	Y20	Z20	X21	Y21	Z21	X22	Y22	Z22	X23	Y23	Z23	X24	Y24	Z24	X25	Y25	Z25	X26	Y26	Z26	X27	Y27	Z27	X28	Y28	Z28	X29	Y29	Z29	X30	Y30	Z30	X31	Y31	Z31	X32	Y32	Z32	X33	Y33	Z33	X34	Y34	Z34	X35	Y35	Z35	X36	Y36	Z36	X37	Y37	Z37	X38	Y38	Z38	X39	Y39	Z39	X40	Y40	Z40	X41	Y41	Z41	X42	Y42	Z42	X43	Y43	Z43	X44	Y44	Z44	X45	Y45	Z45	X46	Y46	Z46	X47	Y47	Z47	X48	Y48	Z48	X49	Y49	Z49	X50	Y50	Z50	

271	1.125	619.33	1278	368.1	537.73	1528.7	546.92	518.86	1561	210.65	517.67	1834.9	379.97	553.35	1014.4	488.43	558.95	1024.1	239.39	353.64	1037.8	394.9	357.58	1036.8	302.47	464.77	937	544.48	487.29	945.45	152.19	466.11	1099.9	525.82	470.36	1103.1	190.59	342.41	1003.1	361.21	514.72	705.54	528.53	562.88	634.62	472.59	497.81	620.16	502.21	575.69	719.67	498.46	483.79	527.6	480.67	496.06	517.14	348.02	379.98	294.97	454.14	433.98	222.89	453.75	373.35	220.59	433.55	442.72	298.29	472.11	406.24	124.35	429.46	432.27	152.56	345.89	343.34	76.287	364	355.08	44.609	335.81	348.82	47.12	400.86	511.27	33.414	462.93	551.38	47.388	344.72	611.75	64.8	394.77	599.04	730.34	142.76	703.28	702.63	165.47	652.24	651.94	154.49	658.15	781.07	155.38	691	577.22	162.24	584.22	402.03	183.91	634.65	329.49	180.35	567.73	333.51	205.03	647.48	397.68	164.99	559.88	198.66	214.81	613.09	203.47	293.16	503.01	162.15	282.04	515.21	136.18	313.09	494.08	134.44	255.03	653.65	84.868	168.27	701.77	95.738	278.08	753.24	92.491	213.06	469.73	1578.8	390.11	355.43	1299.7	373.81
272	1.1292	624.07	1277.6	368.42	542.33	1528.5	546.92	523.99	1560.5	210.58	522.48	1834.5	379.64	557.79	1014.1	488.9	563.98	1023.8	239.85	358.31	1037.6	394.83	362.45	1036.6	302.41	468.85	936.85	544.67	492.52	945.25	152.45	470.5	1099.7	526.01	475.51	1102.8	190.79	347.13	1002.9	361.13	517.68	705.22	528.65	565.6	634.06	472.85	500.39	619.92	502.28	578.84	718.99	498.77	485.83	527.39	480.72	498.11	516.88	348.02	381.02	295.2	454.14	434.73	222.91	453.75	374.09	220.86	433.53	443.76	298.25	472.12	406.54	124.43	429.37	432.74	152.61	345.81	343.44	76.391	363.95	355.17	44.671	335.82	348.89	47.25	400.83	511.31	33.373	462.93	551.43	47.203	344.73	611.83	64.536	394.77	604.59	730.16	143.43	708.84	702.77	166.52	658	651.92	155.43	663.53	781.07	156.2	697.19	577.35	163.36	594.63	399.21	184.4	646.95	328.02	180.59	579.99	330.23	205.38	657.97	396.59	165.4	575.91	195	214.65	629.28	200.98	292.93	520.33	156.53	281.81	533.44	130.82	312.79	512.09	128.64	254.77	672.83	84.065	167.43	720.97	95.955	277.19	772.31	94.417	212.01	474.6	1578.5	389.97	360.15	1299.5	373.71
273	1.1333	628.81	1277.3	368.73	546.93	1528.3	546.89	529.13	1560.1	210.49	527.31	1834.2	379.3	562.22	1013.8	489.37	569.02	1023.5	240.3	363	1037.4	394.76	367.34	1036.3	302.34	472.94	936.69	544.86	497.72	945	152.72	474.91	1099.5	526.19	480.66	1102.4	190.99	351.87	1002.7	361.05	520.65	704.89	528.77	568.34	633.5	473.13	502.98	619.69	502.35	582	718.32	499.09	487.88	527.18	480.77	500.18	516.6	348.04	382.06	295.43	454.14	435.49	222.92	453.75	374.83	221.13	433.52	444.81	298.22	472.13	406.84	124.52	429.29	433.21	152.66	345.74	343.55	76.498	363.9	355.25	44.738	335.83	348.96	47.381	400.81	511.34	33.341	462.93	551.49	47.026	344.75	611.91	64.276	394.77	610.06	729.89	144.09	714.31	702.78	167.56	663.64	651.8	156.39	668.84	780.97	157.02	703.27	577.36	164.49	605.02	396.39	184.92	659.2	326.6	180.83	592.24	326.99	205.75	668.38	395.5	165.83	591.99	191.47	214.48	645.48	198.63	292.7	537.77	151.09	281.58	551.78	125.66	312.49	530.23	123.03	254.51	691.98	83.501	166.58	740.11	96.41	276.27	791.26	96.581	210.94	479.48	1578.2	389.82	364.89	1299.3	373.59
274	1.1375	633.56	1276.9	369.04	551.54	1528.1	546.85	534.28	1559.6	210.39	532.15	1833.8	378.94	566.66	1013.5	489.82	574.07	1023.1	240.75	367.69	1037.2	394.68	372.24	1036	302.27	477.03	936.52	545.05	502.92	944.71	152.99	479.34	1099.3	526.36	485.82	1102	191.17	356.61	1002.5	360.97	523.62	704.56	528.9	571.09	632.93	473.43	505.57	619.45	502.43	585.16	717.64	499.43	489.94	526.96	480.83	502.29	516.32	348.06	383.1	295.66	454.14	436.27	222.94	453.76	375.56	221.41	433.51	445.86	298.19	472.15	407.14	124.62	429.22	433.68	152.71	345.67	343.66	76.606	363.86	355.33	44.811	335.83	349.02	47.512	400.78	511.36	33.319	462.95	551.57	46.855	344.77	611.99	64.019	394.78	615.46	729.53	144.76	719.69	702.67	168.6	669.19	651.56	157.34	674.09	780.76	157.84	709.22	577.26	165.62	615.37	393.59	185.47	671.38	325.24	181.07	604.48	323.8	206.14	678.71	394.41	166.26	608.11	188.1	214.32	661.68	196.45	292.46	555.31	145.83	281.36	570.22	120.71	312.19	548.48	117.63	254.26	711.06	83.182	165.72	759.18	97.11	275.34	810.07	98.986	209.84	484.37	1577.9	389.64	369.63	1299	373.46
275	1.1417	638.32	1276.5	369.33	556.15	1527.8	546.79	539.46	1559	210.27	537	1833.4	378.57	571.09	1013.2	490.27	579.13	1022.7	241.19	372.4	1036.9	394.6	377.15	1035.7	302.2	481.14	936.33	545.23	508.09	944.38	153.28	483.79	1099	526.53	490.99	1101.6	191.35	361.37	1002.2	360.89	526.6	704.23	529.03	573.86	632.36	473.73	508.18	619.21	502.51	588.33	716.95	499.79	492.01	526.74	480.9	504.41	516.04	348.1	384.14	295.9	454.15	437.06	222.96	453.77	376.3	221.68	433.51	446.91	298.16	472.18	407.44	124.71	429.16	434.14	152.76	345.6	343.76	76.717	363.81	355.4	44.889	335.83	349.09	47.645	400.76	511.38	33.306	462.97	551.66	46.69	344.81	612.07	63.763	394.79	620.79	729.08	145.43	725.01	702.43	169.62	674.63	651.22	158.3	679.29	780.43	158.64	715.06	577.05	166.75	625.7	390.8	186.04	683.5	323.94	181.31	616.71	320.68	206.55	688.97	393.34	166.69	624.24	184.89	214.16	677.86	194.44	292.22	572.95	140.78	281.14	588.74	116	311.89	566.82	112.46	254	730.06	83.114	164.85	778.16	98.06	274.4	828.74	101.63	208.73	489.27	1577.5	389.44	374.39	1298.7	373.31
276	1.1458	643.09	1276	369.61	560.77	1527.5	546.72	544.66	1558.5	210.14	541.86	1832.9	378.19	575.51	1012.8	490.7	584.2	1022.2	241.63	377.13	1036.7	394.52	382.08	1035.3	302.13	485.26	936.13	545.41	513.26	943.99	153.57	488.26	1098.8	526.69	496.17	1101.1	191.52	366.14	1001.9	360.81	529.58	703.89	529.17	576.62	631.79	474.05	510.8	618.97	502.59	591.51	716.25	500.17	494.07	526.52	480.97	506.54	515.75	348.13	385.18	296.13	454.16	437.85	222.98	453.77	377.04	221.97	433.51	447.97	298.13	472.2	407.75	124.81	429.1	434.6	152.81	345.54	343.87	76.829	363.77	355.48	44.971	335.83	349.16	47.781	400.74	511.39	33.301	463	551.75	46.528	344.85	612.14	63.507	394.8	626.04	728.54	146.1	730.24	702.06	170.64	679.97	650.77	159.26	684.44	780	159.42	720.8	576.71	167.87	636.01	388.03	186.64	695.53	322.7	181.54	628.92	317.63	206.99	699.14	392.28	167.12	640.38	181.86	213.99	694.02	192.6	291.98	590.65	135.95	280.92	607.32	111.53	311.59	585.24	107.52	253.75	748.97	83.301	163.98	797.02	99.266	273.45	847.23	104.53	207.61	494.17	1577.1	389.23	379.16	1298.4	373.14
